<svg viewBox="0 0 16 16" xmlns="http://www.w3.org/2000/svg" xmlns:xlink="http://www.w3.org/1999/xlink" width="16.000000" height="16.000000" fill="none">
	<rect id="Left-icon" width="16.000000" height="16.000000" x="0.000000" y="0.000000" />
	<path id="Vector" d="M6.1378 2.12127C5.96972 2.17452 5.80372 2.23504 5.64028 2.30274C4.89211 2.61265 4.2123 3.06688 3.63967 3.63951C3.06704 4.21213 2.61281 4.89194 2.30291 5.64012C2.05696 6.23388 1.90574 6.86146 1.8538 7.5L4.84079 7.5C4.86212 6.7694 4.93015 6.0494 5.04321 5.36705C5.18183 4.53039 5.38664 3.75943 5.65031 3.10026C5.79426 2.74038 5.9569 2.41094 6.1378 2.12127ZM8.00016 0.833332C7.05902 0.833332 6.1271 1.0187 5.2576 1.37886C4.3881 1.73902 3.59805 2.26691 2.93256 2.9324C2.26708 3.59789 1.73919 4.38793 1.37903 5.25743C1.01887 6.12693 0.833496 7.05886 0.833496 8C0.833496 8.94114 1.01887 9.87306 1.37903 10.7426C1.73918 11.6121 2.26708 12.4021 2.93256 13.0676C3.59805 13.7331 4.3881 14.261 5.2576 14.6211C6.1271 14.9813 7.05902 15.1667 8.00016 15.1667C8.9413 15.1667 9.87323 14.9813 10.7427 14.6211C11.6122 14.261 12.4023 13.7331 13.0678 13.0676C13.7332 12.4021 14.2611 11.6121 14.6213 10.7426C14.9815 9.87306 15.1668 8.94114 15.1668 8C15.1668 7.05886 14.9815 6.12694 14.6213 5.25743C14.2611 4.38794 13.7332 3.59789 13.0678 2.9324C12.4023 2.26691 11.6122 1.73902 10.7427 1.37886C9.87323 1.0187 8.9413 0.833332 8.00016 0.833332ZM8.00016 1.83333C7.82599 1.83333 7.60098 1.91719 7.33934 2.18813C7.07577 2.46107 6.81191 2.88884 6.57878 3.47165C6.3472 4.0506 6.15916 4.74949 6.02976 5.5305C5.92594 6.15712 5.86227 6.82208 5.84124 7.5L10.1591 7.5C10.1381 6.82208 10.0744 6.15712 9.97057 5.53051C9.84116 4.74949 9.65312 4.0506 9.42154 3.47165C9.18842 2.88884 8.92455 2.46107 8.66098 2.18813C8.39934 1.91719 8.17433 1.83333 8.00016 1.83333ZM11.1595 7.5C11.1382 6.7694 11.0702 6.0494 10.9571 5.36705C10.8185 4.53039 10.6137 3.75943 10.35 3.10026C10.2061 2.74038 10.0434 2.41094 9.86252 2.12127C10.0306 2.17452 10.1966 2.23504 10.36 2.30274C11.1082 2.61265 11.788 3.06688 12.3607 3.63951C12.9333 4.21214 13.3875 4.89194 13.6974 5.64012C13.9434 6.23388 14.0946 6.86146 14.1465 7.5L11.1595 7.5ZM10.1591 8.5L5.84124 8.5C5.86227 9.17791 5.92594 9.84287 6.02976 10.4695C6.15916 11.2505 6.3472 11.9494 6.57878 12.5283C6.81191 13.1112 7.07577 13.5389 7.33934 13.8119C7.60098 14.0828 7.82599 14.1667 8.00016 14.1667C8.17433 14.1667 8.39934 14.0828 8.66098 13.8119C8.92455 13.5389 9.18842 13.1112 9.42154 12.5283C9.65312 11.9494 9.84116 11.2505 9.97057 10.4695C10.0744 9.84287 10.1381 9.17791 10.1591 8.5ZM9.86252 13.8787C10.0434 13.5891 10.2061 13.2596 10.35 12.8997C10.6137 12.2406 10.8185 11.4696 10.9571 10.6329C11.0702 9.95059 11.1382 9.2306 11.1595 8.5L14.1465 8.5C14.0946 9.13853 13.9434 9.76612 13.6974 10.3599C13.3875 11.1081 12.9333 11.7879 12.3607 12.3605C11.788 12.9331 11.1082 13.3874 10.36 13.6973C10.1966 13.765 10.0306 13.8255 9.86252 13.8787ZM6.1378 13.8787C5.9569 13.5891 5.79426 13.2596 5.65031 12.8997C5.38664 12.2406 5.18183 11.4696 5.04321 10.6329C4.93015 9.95059 4.86212 9.2306 4.84079 8.5L1.8538 8.5C1.90574 9.13853 2.05696 9.76612 2.30291 10.3599C2.61281 11.1081 3.06704 11.7879 3.63967 12.3605C4.2123 12.9331 4.89211 13.3874 5.64028 13.6973C5.80372 13.765 5.96972 13.8255 6.1378 13.8787Z" fill="rgb(0,129,251)" fill-rule="evenodd" />
</svg>
