<svg viewBox="0 0 16 16" xmlns="http://www.w3.org/2000/svg" xmlns:xlink="http://www.w3.org/1999/xlink" width="16.000000" height="16.000000" fill="none" clip-path="url(#clipPath_5)" customFrame="url(#clipPath_5)">
	<defs>
		<clipPath id="clipPath_5">
			<rect width="16.000000" height="16.000000" x="0.000000" y="0.000000" rx="5.000000" fill="rgb(255,255,255)" />
		</clipPath>
	</defs>
	<rect id="Left-icon" width="16.000000" height="16.000000" x="0.000000" y="0.000000" rx="5.000000" />
	<path id="Vector" d="M8.00019 0.833332C5.14672 0.833332 2.83352 3.14653 2.83352 6L2.83352 6.4694C2.83352 6.93402 2.696 7.38823 2.43827 7.77482L1.67254 8.92342C0.783808 10.2565 1.46228 12.0685 3.00801 12.4901C3.51175 12.6275 4.01974 12.7437 4.53068 12.8387L4.53195 12.8421C5.04461 14.2101 6.41482 15.1667 8.00015 15.1667C9.58548 15.1667 10.9557 14.2101 11.4683 12.8421L11.4696 12.8387C11.9806 12.7437 12.4886 12.6275 12.9924 12.4901C14.5381 12.0685 15.2166 10.2565 14.3278 8.92342L13.5621 7.77482C13.3044 7.38823 13.1669 6.93402 13.1669 6.4694L13.1669 6C13.1669 3.14653 10.8537 0.833332 8.00019 0.833332ZM10.2511 13.0246C8.75583 13.2033 7.24446 13.2033 5.74916 13.0246C6.22312 13.7057 7.0475 14.1667 8.00015 14.1667C8.95278 14.1667 9.77716 13.7057 10.2511 13.0246ZM3.83352 6C3.83352 3.69881 5.699 1.83333 8.00019 1.83333C10.3014 1.83333 12.1669 3.69881 12.1669 6L12.1669 6.4694C12.1669 7.13144 12.3628 7.77867 12.7301 8.32952L13.4958 9.47812C14.0059 10.2433 13.6165 11.2834 12.7293 11.5253C9.63309 12.3697 6.36729 12.3697 3.27112 11.5253C2.3839 11.2834 1.99447 10.2433 2.50459 9.47812L3.27032 8.32952C3.63756 7.77867 3.83352 7.13144 3.83352 6.4694L3.83352 6Z" fill="rgb(0,129,251)" fill-rule="evenodd" />
	<path id="Vector" d="" fill="rgb(0,129,251)" fill-rule="nonzero" />
</svg>
