<svg viewBox="0 0 16 16" xmlns="http://www.w3.org/2000/svg" xmlns:xlink="http://www.w3.org/1999/xlink" width="16.000000" height="16.000000" fill="none">
	<rect id="Left-icon" width="16.000000" height="16.000000" x="0.000000" y="0.000000" />
	<path id="Vector" d="M8.03793 0.833332L7.96142 0.833332C6.4225 0.833324 5.21647 0.833318 4.27548 0.95983C3.31232 1.08932 2.55231 1.35955 1.95577 1.95609C1.35923 2.55263 1.089 3.31265 0.959506 4.2758C0.832993 5.21679 0.833 6.42282 0.833008 7.96175L0.833008 8.03826C0.833 9.57719 0.832993 10.7832 0.959506 11.7242C1.089 12.6874 1.35923 13.4474 1.95577 14.0439C2.55231 14.6404 3.31232 14.9107 4.27548 15.0402C5.21646 15.1667 6.42248 15.1667 7.96139 15.1667L8.03795 15.1667C9.57687 15.1667 10.7829 15.1667 11.7239 15.0402C12.687 14.9107 13.447 14.6404 14.0436 14.0439C14.6401 13.4474 14.9103 12.6874 15.0398 11.7242C15.1664 10.7832 15.1663 9.57719 15.1663 8.03828L15.1663 7.96172C15.1663 6.4228 15.1664 5.21679 15.0398 4.2758C14.9103 3.31265 14.6401 2.55263 14.0436 1.95609C13.447 1.35955 12.687 1.08932 11.7239 0.95983C10.7829 0.833318 9.57685 0.833324 8.03793 0.833332ZM2.66287 2.6632C3.04264 2.28343 3.55646 2.0655 4.40873 1.95091C5.27538 1.83439 6.41419 1.83333 7.99967 1.83333C9.58516 1.83333 10.724 1.83439 11.5906 1.95091C12.4429 2.0655 12.9567 2.28343 13.3365 2.6632C13.7162 3.04297 13.9342 3.55678 14.0488 4.40905C14.1653 5.2757 14.1663 6.41451 14.1663 8C14.1663 9.58548 14.1653 10.7243 14.0488 11.5909C13.9342 12.4432 13.7162 12.957 13.3365 13.3368C12.9567 13.7166 12.4429 13.9345 11.5906 14.0491C10.724 14.1656 9.58516 14.1667 7.99967 14.1667C6.41419 14.1667 5.27538 14.1656 4.40873 14.0491C3.55646 13.9345 3.04264 13.7166 2.66287 13.3368C2.2831 12.957 2.06517 12.4432 1.95059 11.5909C1.83407 10.7243 1.83301 9.58548 1.83301 8C1.83301 6.41451 1.83407 5.2757 1.95059 4.40905C2.06517 3.55678 2.2831 3.04297 2.66287 2.6632ZM7.24967 5.91667C7.24967 5.50245 7.58546 5.16667 7.99967 5.16667C8.41389 5.16667 8.74967 5.50245 8.74967 5.91667C8.74967 6.19103 8.60263 6.43159 8.38065 6.56292C8.19493 6.6728 7.98542 6.82401 7.8174 7.02201C7.64732 7.22242 7.49967 7.49607 7.49967 7.83333L7.49967 8.66667C7.49967 8.94281 7.72353 9.16667 7.99967 9.16667C8.27582 9.16667 8.49967 8.94281 8.49967 8.66667L8.49967 7.83333C8.49967 7.8024 8.51137 7.74975 8.57986 7.66904C8.65041 7.58591 8.75868 7.50118 8.88985 7.42358C9.40344 7.11971 9.74967 6.55889 9.74967 5.91667C9.74967 4.95017 8.96617 4.16667 7.99967 4.16667C7.03318 4.16667 6.24967 4.95017 6.24967 5.91667C6.24967 6.19281 6.47353 6.41667 6.74967 6.41667C7.02582 6.41667 7.24967 6.19281 7.24967 5.91667ZM7.99967 11.3333C8.36786 11.3333 8.66634 11.0349 8.66634 10.6667C8.66634 10.2985 8.36786 10 7.99967 10C7.63148 10 7.33301 10.2985 7.33301 10.6667C7.33301 11.0349 7.63148 11.3333 7.99967 11.3333Z" fill="rgb(0,129,251)" fill-rule="evenodd" />
	<path id="Vector" d="M7.99967 0.833332L8.03793 0.833332C9.57685 0.833324 10.7829 0.833318 11.7239 0.95983C12.687 1.08932 13.447 1.35955 14.0436 1.95609C14.639 2.55146 14.9093 3.30968 15.0391 4.27016C15.0393 4.27204 15.0396 4.27392 15.0398 4.2758C15.1664 5.21679 15.1663 6.4228 15.1663 7.96172L15.1663 8.03828C15.1663 9.57719 15.1664 10.7832 15.0398 11.7242C14.9103 12.6874 14.6401 13.4474 14.0436 14.0439C13.4482 14.6393 12.69 14.9096 11.7295 15.0394C11.7276 15.0397 11.7258 15.0399 11.7239 15.0402C11.722 15.0404 11.7202 15.0407 11.7184 15.0409C10.7782 15.1667 9.57386 15.1667 8.03795 15.1667L7.96139 15.1667C6.42248 15.1667 5.21646 15.1667 4.27548 15.0402C4.2736 15.0399 4.27172 15.0397 4.26984 15.0394C3.30935 14.9096 2.55114 14.6393 1.95577 14.0439C1.35923 13.4474 1.089 12.6874 0.959506 11.7242C0.832993 10.7832 0.833 9.57719 0.833008 8.03826L0.833008 7.96175C0.833 6.42282 0.832993 5.21679 0.959506 4.2758C0.959759 4.27392 0.960012 4.27204 0.960267 4.27016C1.0898 3.31156 1.35933 2.55443 1.95227 1.95959C1.95344 1.95842 1.9546 1.95725 1.95577 1.95609C1.95693 1.95493 1.9581 1.95376 1.95926 1.9526C2.55528 1.35849 3.3142 1.08907 4.27548 0.95983L4.2768 0.959653C5.21759 0.833318 6.42321 0.833324 7.96142 0.833332L7.99967 0.833332ZM8.05488 1.83333L7.99967 1.83333L7.94447 1.83333C6.3877 1.83337 5.26529 1.83575 4.40873 1.95091C3.55646 2.0655 3.04264 2.28343 2.66287 2.6632C2.2831 3.04297 2.06517 3.55678 1.95059 4.40905C1.83543 5.26561 1.83305 6.38803 1.83301 7.94479L1.83301 8L1.83301 8.05521C1.83305 9.61197 1.83543 10.7344 1.95059 11.5909C2.06495 12.4416 2.28225 12.955 2.66065 13.3346C2.66139 13.3353 2.66213 13.3361 2.66287 13.3368C2.66361 13.3375 2.66436 13.3383 2.6651 13.339C3.04465 13.7174 3.55812 13.9347 4.40873 14.0491C5.26626 14.1644 6.39027 14.1666 7.9498 14.1667L7.96139 14.1667L8.03796 14.1667L8.04954 14.1667C9.60908 14.1666 10.7331 14.1644 11.5906 14.0491C12.4412 13.9347 12.9547 13.7174 13.3342 13.339C13.335 13.3383 13.3357 13.3375 13.3365 13.3368C13.3372 13.3361 13.338 13.3353 13.3387 13.3346C13.7171 12.955 13.9344 12.4416 14.0488 11.5909C14.1641 10.7334 14.1663 9.6094 14.1663 8.04987L14.1663 8.03829L14.1663 7.96171L14.1663 7.95013C14.1663 6.39059 14.1641 5.26659 14.0488 4.40905C13.9344 3.55845 13.7171 3.04498 13.3387 2.66542C13.338 2.66468 13.3372 2.66394 13.3365 2.6632C12.9574 2.28417 12.4449 2.06635 11.5956 1.95159C11.594 1.95136 11.5923 1.95114 11.5906 1.95091L11.589 1.9507C10.7327 1.83575 9.61067 1.83337 8.05488 1.83333ZM8.34085 9.03218C8.43858 8.94092 8.49967 8.81093 8.49967 8.66667L8.49967 7.83333C8.49967 7.82919 8.49989 7.82498 8.50031 7.8207C8.50465 7.77698 8.53116 7.72643 8.57986 7.66905C8.65041 7.58591 8.75868 7.50118 8.88985 7.42358C8.89085 7.42298 8.89185 7.42239 8.89286 7.42179C9.40479 7.11752 9.74967 6.55764 9.74967 5.91667C9.74967 5.43342 9.5538 4.99592 9.23711 4.67923C8.92042 4.36254 8.48292 4.16667 7.99967 4.16667C7.51642 4.16667 7.07892 4.36254 6.76224 4.67923C6.44555 4.99592 6.24967 5.43342 6.24967 5.91667C6.24967 6.19281 6.47353 6.41667 6.74967 6.41667C7.02582 6.41667 7.24967 6.19281 7.24967 5.91667C7.24967 5.70956 7.33362 5.52206 7.46934 5.38633C7.60507 5.25061 7.79257 5.16667 7.99967 5.16667C8.20678 5.16667 8.39428 5.25061 8.53 5.38634C8.66573 5.52206 8.74967 5.70956 8.74967 5.91667C8.74967 6.19103 8.60263 6.43159 8.38065 6.56292C8.19493 6.6728 7.98542 6.82401 7.8174 7.02201C7.81674 7.02279 7.81607 7.02357 7.81541 7.02436C7.64617 7.22456 7.49967 7.49739 7.49967 7.83333L7.49967 8.66667C7.49967 8.81093 7.56077 8.94092 7.6585 9.03218C7.74784 9.11561 7.86779 9.16667 7.99967 9.16667C8.13155 9.16667 8.25151 9.11561 8.34085 9.03218ZM8.38241 10.1207C8.27409 10.0447 8.1421 10 7.99967 10C7.85725 10 7.72526 10.0447 7.61694 10.1207C7.44523 10.2413 7.33301 10.4409 7.33301 10.6667C7.33301 11.0349 7.63148 11.3333 7.99967 11.3333C8.36786 11.3333 8.66634 11.0349 8.66634 10.6667C8.66634 10.4409 8.55412 10.2413 8.38241 10.1207ZM7.74967 10.4167C7.80523 10.3611 7.88856 10.3333 7.99967 10.3333C8.0457 10.3333 8.08835 10.3415 8.12764 10.3577C8.16692 10.374 8.20283 10.3984 8.23538 10.431C8.26792 10.4635 8.29233 10.4994 8.3086 10.5387C8.32487 10.578 8.33301 10.6206 8.33301 10.6667C8.33301 10.7127 8.32487 10.7553 8.3086 10.7946C8.29233 10.8339 8.26792 10.8698 8.23538 10.9024C8.20283 10.9349 8.16692 10.9593 8.12763 10.9756C8.08835 10.9919 8.0457 11 7.99967 11C7.88856 11 7.80523 10.9722 7.74967 10.9167C7.69412 10.8611 7.66634 10.7778 7.66634 10.6667C7.66634 10.5556 7.69412 10.4722 7.74967 10.4167Z" fill="rgb(0,129,251)" fill-rule="evenodd" />
</svg>
