<svg viewBox="0 0 16 16" xmlns="http://www.w3.org/2000/svg" xmlns:xlink="http://www.w3.org/1999/xlink" width="16.000000" height="16.000000" fill="none">
	<rect id="Left-icon" width="16.000000" height="16.000000" x="0.000000" y="0.000000" />
	<path id="Vector" d="M7.66658 1.83333C4.44492 1.83333 1.83325 4.445 1.83325 7.66667C1.83325 10.8883 4.44492 13.5 7.66658 13.5C10.8882 13.5 13.4999 10.8883 13.4999 7.66667C13.4999 4.445 10.8882 1.83333 7.66658 1.83333ZM0.833252 7.66667C0.833252 3.89272 3.89264 0.833332 7.66658 0.833332C11.4405 0.833332 14.4999 3.89272 14.4999 7.66667C14.4999 9.37367 13.874 10.9345 12.8392 12.1321L15.0201 14.3131C15.2154 14.5084 15.2154 14.825 15.0201 15.0202C14.8249 15.2155 14.5083 15.2155 14.313 15.0202L12.1321 12.8392C10.9344 13.8741 9.37359 14.5 7.66658 14.5C3.89264 14.5 0.833252 11.4406 0.833252 7.66667Z" fill="rgb(0,129,251)" fill-rule="evenodd" />
</svg>
