<svg viewBox="0 0 24 24" xmlns="http://www.w3.org/2000/svg" xmlns:xlink="http://www.w3.org/1999/xlink" width="24.000000" height="24.000000" fill="none">
	<defs>
		<linearGradient id="paint_linear_2" x1="11.9999914" x2="11.9999914" y1="-7.3209677e-16" y2="23.9120941" gradientUnits="userSpaceOnUse">
			<stop stop-color="rgb(8,102,255)" offset="0" stop-opacity="1" />
			<stop stop-color="rgb(135,191,255)" offset="1" stop-opacity="1" />
		</linearGradient>
	</defs>
	<rect id="Social" width="24.000000" height="24.000000" x="0.000000" y="0.000000" />
	<path id="path" d="M24 11.9121C24 18.5395 18.6274 23.9121 12 23.9121C5.37259 23.9121 0 18.5395 0 11.9121C0 6.28435 3.87432 1.56226 9.10108 0.265488L9.10108 8.2451L6.62659 8.2451L6.62659 11.9121L9.10108 11.9121L9.10108 13.4922C9.10108 17.5766 10.9495 19.4697 14.9594 19.4697C15.7196 19.4697 17.0314 19.3207 17.568 19.1716L17.568 15.8474C17.2848 15.8772 16.7929 15.8922 16.1817 15.8922C14.214 15.8922 13.4538 15.1468 13.4538 13.209L13.4538 11.9121L17.3734 11.9121L16.7001 8.2451L13.4538 8.2451L13.4538 0C19.3955 0.717647 24 5.77684 24 11.9121Z" fill="url(#paint_linear_2)" fill-rule="nonzero" transform="matrix(1,0,0,-1,0,23.9121)" />
	<path id="path" d="M10.0735 8.33299L10.7469 12L6.82723 12L6.82723 13.2969C6.82723 15.2348 7.58745 15.9801 9.55511 15.9801C10.1663 15.9801 10.6582 15.9652 10.9414 15.9354L10.9414 19.2595C10.4048 19.4086 9.09302 19.5577 8.33279 19.5577C4.32293 19.5577 2.47449 17.6645 2.47449 13.5801L2.47449 12L0 12L0 8.33299L2.47449 8.33299L2.47449 0.353376C3.40296 0.123072 4.37376 0 5.3734 0C5.8656 0 6.35059 0.0303364 6.82723 0.0878884L6.82723 8.33299L10.0735 8.33299Z" fill="rgb(255,255,255)" fill-rule="nonzero" transform="matrix(1,0,0,-1,6.62646,24)" />
</svg>
