<svg viewBox="0 0 36 36" xmlns="http://www.w3.org/2000/svg" xmlns:xlink="http://www.w3.org/1999/xlink" width="36.000000" height="36.000000" fill="none" clip-path="url(#clipPath_0)" customFrame="url(#clipPath_0)">
	<defs>
		<clipPath id="clipPath_0">
			<rect width="36.000000" height="36.000000" x="0.000000" y="0.000000" rx="8.000000" fill="rgb(255,255,255)" />
		</clipPath>
		<clipPath id="clipPath_1">
			<rect width="16.000000" height="16.000000" x="10.000000" y="10.000000" fill="rgb(255,255,255)" />
		</clipPath>
		<clipPath id="clipPath_2">
			<rect width="16.000000" height="16.000000" x="10.000000" y="10.000000" fill="rgb(255,255,255)" />
		</clipPath>
		<clipPath id="clipPath_3">
			<rect width="16.000000" height="16.000000" x="76.000000" y="12.000000" fill="rgb(255,255,255)" />
		</clipPath>
		<clipPath id="clipPath_4">
			<rect width="49.000000" height="20.000000" x="76.000000" y="10.000000" rx="10.000000" fill="rgb(255,255,255)" />
		</clipPath>
		<clipPath id="clipPath_5">
			<rect width="12.000000" height="12.000000" x="82.000000" y="14.000000" fill="rgb(255,255,255)" />
		</clipPath>
		<clipPath id="clipPath_6">
			<rect width="12.000000" height="12.000000" x="82.000000" y="14.000000" rx="6.000000" fill="rgb(255,255,255)" />
		</clipPath>
		<clipPath id="clipPath_7">
			<rect width="12.000000" height="12.000000" x="121.000000" y="14.000000" fill="rgb(255,255,255)" />
		</clipPath>
	</defs>
	<rect id="Solid Button" width="36.000000" height="36.000000" x="0.000000" y="0.000000" rx="8.000000" fill="rgb(0,129,251)" />
	<g id="Left-icon" customFrame="url(#clipPath_1)">
		<rect id="Left-icon" width="16.000000" height="16.000000" x="10.000000" y="10.000000" fill="rgb(255,255,255)" fill-opacity="0" />
		<g id="plus" clip-path="url(#clipPath_2)" customFrame="url(#clipPath_2)">
			<rect id="plus" width="16.000000" height="16.000000" x="10.000000" y="10.000000" />
			<path id="Vector" d="M13.3335 18L22.6668 18M18.0002 13.3333L18.0002 22.6667" stroke="rgb(255,255,255)" stroke-linecap="round" stroke-linejoin="round" stroke-width="1.500000" />
		</g>
	</g>
	<path id="label" d="M34.654 18.936C34.654 20.2333 34.2247 21.3627 33.366 22.324L34.402 23.388L33.268 24.41L32.19 23.304C31.3593 23.78 30.4867 24.018 29.572 24.018C28.172 24.018 26.9727 23.528 25.974 22.548C24.9847 21.5587 24.49 20.3547 24.49 18.936C24.49 17.5173 24.9847 16.318 25.974 15.338C26.9633 14.3487 28.1627 13.854 29.572 13.854C30.9813 13.854 32.1807 14.3487 33.17 15.338C34.1593 16.318 34.654 17.5173 34.654 18.936ZM29.572 22.45C30.076 22.45 30.566 22.3427 31.042 22.128L29.25 20.294L30.384 19.272L32.26 21.19C32.7827 20.5367 33.044 19.7853 33.044 18.936C33.044 17.9373 32.708 17.102 32.036 16.43C31.364 15.758 30.5427 15.422 29.572 15.422C28.6013 15.422 27.78 15.758 27.108 16.43C26.436 17.102 26.1 17.9373 26.1 18.936C26.1 19.9347 26.436 20.77 27.108 21.442C27.78 22.114 28.6013 22.45 29.572 22.45ZM42.0149 22.954C41.3056 23.6633 40.4329 24.018 39.3969 24.018C38.3609 24.018 37.4883 23.6633 36.7789 22.954C36.0603 22.2353 35.7009 21.3627 35.7009 20.336C35.7009 19.3093 36.0603 18.4367 36.7789 17.718C37.4883 17.0087 38.3609 16.654 39.3969 16.654C40.4329 16.654 41.3056 17.0087 42.0149 17.718C42.7336 18.4367 43.0929 19.3093 43.0929 20.336C43.0929 21.3627 42.7336 22.2353 42.0149 22.954ZM37.2129 20.336C37.2129 20.9707 37.4229 21.498 37.8429 21.918C38.2629 22.338 38.7809 22.548 39.3969 22.548C40.0129 22.548 40.5309 22.338 40.9509 21.918C41.3709 21.498 41.5809 20.9707 41.5809 20.336C41.5809 19.7013 41.3709 19.174 40.9509 18.754C40.5309 18.334 40.0129 18.124 39.3969 18.124C38.7809 18.124 38.2629 18.334 37.8429 18.754C37.4229 19.174 37.2129 19.7013 37.2129 20.336ZM43.8958 14.036L45.5758 14.036L44.5957 17.676L43.3358 17.676L43.8958 14.036ZM47.4177 18.768C47.4177 18.9827 47.5297 19.16 47.7537 19.3C47.9777 19.4307 48.3044 19.5567 48.7337 19.678C49.0604 19.7527 49.3451 19.832 49.5877 19.916C49.8304 20 50.0871 20.126 50.3577 20.294C50.6284 20.4527 50.8337 20.6673 50.9737 20.938C51.1231 21.1993 51.1931 21.5073 51.1837 21.862C51.1837 22.534 50.9224 23.0613 50.3997 23.444C49.8771 23.8267 49.2284 24.018 48.4537 24.018C47.7631 24.018 47.1704 23.8733 46.6757 23.584C46.1811 23.2947 45.8217 22.8933 45.5977 22.38L46.8997 21.624C47.1331 22.296 47.6511 22.632 48.4537 22.632C49.2471 22.632 49.6437 22.3707 49.6437 21.848C49.6437 21.4653 49.2004 21.1667 48.3137 20.952C47.9777 20.868 47.6931 20.784 47.4597 20.7C47.2357 20.616 46.9837 20.4947 46.7037 20.336C46.4331 20.1773 46.2231 19.9673 46.0737 19.706C45.9337 19.4447 45.8684 19.1413 45.8777 18.796C45.8777 18.152 46.1204 17.634 46.6057 17.242C47.1004 16.85 47.7117 16.654 48.4397 16.654C49.0184 16.654 49.5317 16.7847 49.9797 17.046C50.4371 17.298 50.7871 17.6527 51.0297 18.11L49.7557 18.824C49.5224 18.292 49.0837 18.026 48.4397 18.026C48.1411 18.026 47.8937 18.0913 47.6977 18.222C47.5111 18.3527 47.4177 18.5347 47.4177 18.768ZM56.1128 16.654C56.9248 16.654 57.5735 16.9153 58.0588 17.438C58.5535 17.9513 58.8008 18.6513 58.8008 19.538L58.8008 23.836L57.2888 23.836L57.2888 19.692C57.2888 19.1693 57.1488 18.768 56.8688 18.488C56.5888 18.208 56.2062 18.068 55.7208 18.068C55.1702 18.068 54.7362 18.2407 54.4188 18.586C54.1015 18.922 53.9428 19.4213 53.9428 20.084L53.9428 23.836L52.4308 23.836L52.4308 14.036L53.9428 14.036L53.9428 17.732C54.4095 17.0133 55.1328 16.654 56.1128 16.654ZM61.8569 15.506C61.6702 15.6927 61.4462 15.786 61.1849 15.786C60.9235 15.786 60.6949 15.6927 60.4989 15.506C60.3122 15.31 60.2189 15.0813 60.2189 14.82C60.2189 14.5587 60.3122 14.3347 60.4989 14.148C60.6855 13.952 60.9142 13.854 61.1849 13.854C61.4555 13.854 61.6842 13.952 61.8709 14.148C62.0575 14.3347 62.1509 14.5587 62.1509 14.82C62.1509 15.0813 62.0529 15.31 61.8569 15.506ZM61.9409 23.836L60.4289 23.836L60.4289 16.836L61.9409 16.836L61.9409 23.836ZM65.0134 18.768C65.0134 18.9827 65.1254 19.16 65.3494 19.3C65.5734 19.4307 65.9001 19.5567 66.3294 19.678C66.6561 19.7527 66.9408 19.832 67.1834 19.916C67.4261 20 67.6828 20.126 67.9534 20.294C68.2241 20.4527 68.4294 20.6673 68.5694 20.938C68.7188 21.1993 68.7888 21.5073 68.7794 21.862C68.7794 22.534 68.5181 23.0613 67.9954 23.444C67.4728 23.8267 66.8241 24.018 66.0494 24.018C65.3588 24.018 64.7661 23.8733 64.2714 23.584C63.7768 23.2947 63.4174 22.8933 63.1934 22.38L64.4954 21.624C64.7288 22.296 65.2468 22.632 66.0494 22.632C66.8428 22.632 67.2394 22.3707 67.2394 21.848C67.2394 21.4653 66.7961 21.1667 65.9094 20.952C65.5734 20.868 65.2888 20.784 65.0554 20.7C64.8314 20.616 64.5794 20.4947 64.2994 20.336C64.0288 20.1773 63.8188 19.9673 63.6694 19.706C63.5294 19.4447 63.4641 19.1413 63.4734 18.796C63.4734 18.152 63.7161 17.634 64.2014 17.242C64.6961 16.85 65.3074 16.654 66.0354 16.654C66.6141 16.654 67.1274 16.7847 67.5754 17.046C68.0328 17.298 68.3828 17.6527 68.6254 18.11L67.3514 18.824C67.1181 18.292 66.6794 18.026 66.0354 18.026C65.7368 18.026 65.4894 18.0913 65.2934 18.222C65.1068 18.3527 65.0134 18.5347 65.0134 18.768ZM73.7085 16.654C74.5205 16.654 75.1692 16.9153 75.6545 17.438C76.1492 17.9513 76.3965 18.6513 76.3965 19.538L76.3965 23.836L74.8845 23.836L74.8845 19.692C74.8845 19.1693 74.7445 18.768 74.4645 18.488C74.1845 18.208 73.8019 18.068 73.3165 18.068C72.7659 18.068 72.3319 18.2407 72.0145 18.586C71.6972 18.922 71.5385 19.4213 71.5385 20.084L71.5385 23.836L70.0265 23.836L70.0265 14.036L71.5385 14.036L71.5385 17.732C72.0052 17.0133 72.7285 16.654 73.7085 16.654Z" opacity="0" fill="rgb(255,255,255)" fill-rule="nonzero" />
	<g id="Right-icon" opacity="0" clip-path="url(#clipPath_3)" customFrame="url(#clipPath_3)">
		<rect id="Right-icon" width="16.000000" height="16.000000" x="76.000000" y="12.000000" opacity="0" />
		<path id="Vector" d="M79.3335 20L88.6668 20M84.0002 15.3333L88.6668 20L84.0002 24.6667" fill-rule="evenodd" stroke="rgb(250,250,250)" stroke-linecap="round" stroke-linejoin="round" stroke-width="1.500000" />
	</g>
	<g id="Solid Badge" opacity="0" customFrame="url(#clipPath_4)">
		<rect id="Solid Badge" width="49.000000" height="20.000000" x="76.000000" y="10.000000" rx="10.000000" opacity="0" fill="rgb(23,23,23)" />
		<g id="star" opacity="0" clip-path="url(#clipPath_5)" customFrame="url(#clipPath_5)">
			<rect id="star" width="12.000000" height="12.000000" x="82.000000" y="14.000000" opacity="0" />
			<path id="Vector" d="M89.545 18.13L93 18.635L90.5 21.07L91.09 24.51L88 22.885L84.91 24.51L85.5 21.07L83 18.635L86.455 18.13L88 15L89.545 18.13Z" fill-rule="nonzero" stroke="rgb(250,250,250)" stroke-linecap="round" stroke-linejoin="round" stroke-width="1.500000" />
		</g>
		<g id="Avatar" opacity="0" clip-path="url(#clipPath_6)" customFrame="url(#clipPath_6)">
			<rect id="Avatar" width="12.000000" height="12.000000" x="82.000000" y="14.000000" rx="6.000000" opacity="0" />
			<rect id="pic" width="12.000000" height="12.000000" x="82.000000" y="14.000000" fill="#000000" />
		</g>
		<path id="Badge" d="M83.4617 24.26L83.4617 15.74L86.5217 15.74C87.5457 15.74 88.3177 15.924 88.8377 16.292C89.3577 16.66 89.6177 17.244 89.6177 18.044C89.6177 18.404 89.5417 18.72 89.3897 18.992C89.2377 19.264 89.0137 19.48 88.7177 19.64C88.4297 19.792 88.0857 19.872 87.6857 19.88L87.6737 19.832C88.4017 19.848 88.9657 20.048 89.3657 20.432C89.7737 20.808 89.9777 21.304 89.9777 21.92C89.9777 22.696 89.7177 23.28 89.1977 23.672C88.6777 24.064 87.9377 24.26 86.9777 24.26L83.4617 24.26ZM84.7577 23.096L86.9417 23.096C87.4777 23.096 87.8937 22.988 88.1897 22.772C88.4937 22.548 88.6457 22.224 88.6457 21.8C88.6457 21.384 88.4937 21.06 88.1897 20.828C87.8937 20.596 87.4777 20.48 86.9417 20.48L84.7577 20.48L84.7577 23.096ZM84.7577 19.376L86.4977 19.376C87.0657 19.376 87.5057 19.268 87.8177 19.052C88.1297 18.836 88.2857 18.532 88.2857 18.14C88.2857 17.724 88.1337 17.416 87.8297 17.216C87.5337 17.008 87.0897 16.904 86.4977 16.904L84.7577 16.904L84.7577 19.376ZM93.2857 24.404C92.6217 24.404 92.0897 24.252 91.6897 23.948C91.2977 23.644 91.1017 23.216 91.1017 22.664C91.1017 22.112 91.2657 21.684 91.5937 21.38C91.9297 21.068 92.4457 20.844 93.1417 20.708L95.3377 20.288C95.3377 19.792 95.2217 19.424 94.9897 19.184C94.7577 18.936 94.4137 18.812 93.9577 18.812C93.5497 18.812 93.2297 18.904 92.9977 19.088C92.7657 19.264 92.6057 19.528 92.5177 19.88L91.2097 19.796C91.3297 19.156 91.6257 18.652 92.0977 18.284C92.5777 17.916 93.1977 17.732 93.9577 17.732C94.8217 17.732 95.4777 17.964 95.9257 18.428C96.3817 18.884 96.6097 19.528 96.6097 20.36L96.6097 22.844C96.6097 22.996 96.6337 23.104 96.6817 23.168C96.7377 23.224 96.8257 23.252 96.9457 23.252L97.1737 23.252L97.1737 24.26C97.1337 24.268 97.0697 24.276 96.9817 24.284C96.8937 24.292 96.8017 24.296 96.7057 24.296C96.4337 24.296 96.1977 24.252 95.9977 24.164C95.8057 24.076 95.6617 23.932 95.5657 23.732C95.4697 23.524 95.4217 23.248 95.4217 22.904L95.5537 22.964C95.4897 23.244 95.3497 23.492 95.1337 23.708C94.9257 23.924 94.6577 24.096 94.3297 24.224C94.0097 24.344 93.6617 24.404 93.2857 24.404ZM93.4897 23.396C93.8737 23.396 94.2017 23.324 94.4737 23.18C94.7457 23.028 94.9577 22.82 95.1097 22.556C95.2617 22.292 95.3377 21.992 95.3377 21.656L95.3377 21.248L93.4657 21.608C93.0817 21.68 92.8097 21.796 92.6497 21.956C92.4977 22.108 92.4217 22.304 92.4217 22.544C92.4217 22.816 92.5137 23.028 92.6977 23.18C92.8897 23.324 93.1537 23.396 93.4897 23.396ZM100.469 24.404C99.9248 24.404 99.4488 24.268 99.0408 23.996C98.6408 23.724 98.3328 23.34 98.1168 22.844C97.9088 22.34 97.8048 21.748 97.8048 21.068C97.8048 20.388 97.9128 19.8 98.1288 19.304C98.3448 18.8 98.6528 18.412 99.0528 18.14C99.4528 17.868 99.9248 17.732 100.469 17.732C100.909 17.732 101.301 17.824 101.645 18.008C101.989 18.192 102.249 18.448 102.425 18.776L102.425 15.74L103.697 15.74L103.697 24.26L102.509 24.26L102.473 23.3C102.297 23.644 102.029 23.916 101.669 24.116C101.317 24.308 100.917 24.404 100.469 24.404ZM100.805 23.3C101.149 23.3 101.441 23.212 101.681 23.036C101.921 22.86 102.105 22.604 102.233 22.268C102.361 21.932 102.425 21.532 102.425 21.068C102.425 20.588 102.361 20.184 102.233 19.856C102.105 19.52 101.921 19.268 101.681 19.1C101.441 18.924 101.149 18.836 100.805 18.836C100.293 18.836 99.8848 19.036 99.5808 19.436C99.2768 19.828 99.1248 20.372 99.1248 21.068C99.1248 21.756 99.2768 22.3 99.5808 22.7C99.8848 23.1 100.293 23.3 100.805 23.3ZM107.952 26.204C107.448 26.204 107.004 26.128 106.62 25.976C106.236 25.824 105.92 25.608 105.672 25.328C105.424 25.056 105.256 24.736 105.168 24.368L106.488 24.284C106.576 24.548 106.728 24.756 106.944 24.908C107.168 25.068 107.504 25.148 107.952 25.148C108.48 25.148 108.884 25.036 109.164 24.812C109.452 24.588 109.596 24.248 109.596 23.792L109.596 22.868C109.444 23.196 109.2 23.456 108.864 23.648C108.528 23.84 108.152 23.936 107.736 23.936C107.2 23.936 106.724 23.804 106.308 23.54C105.892 23.276 105.568 22.912 105.336 22.448C105.104 21.984 104.988 21.448 104.988 20.84C104.988 20.224 105.1 19.684 105.324 19.22C105.556 18.756 105.876 18.392 106.284 18.128C106.7 17.864 107.168 17.732 107.688 17.732C108.144 17.732 108.544 17.836 108.888 18.044C109.24 18.252 109.492 18.532 109.644 18.884L109.644 17.876L110.868 17.876L110.868 23.756C110.868 24.284 110.748 24.728 110.508 25.088C110.276 25.456 109.94 25.732 109.5 25.916C109.068 26.108 108.552 26.204 107.952 26.204ZM107.94 22.856C108.436 22.856 108.832 22.676 109.128 22.316C109.432 21.956 109.588 21.46 109.596 20.828C109.604 20.412 109.54 20.056 109.404 19.76C109.268 19.456 109.072 19.224 108.816 19.064C108.568 18.896 108.276 18.812 107.94 18.812C107.42 18.812 107.016 18.996 106.728 19.364C106.448 19.724 106.308 20.212 106.308 20.828C106.308 21.452 106.452 21.948 106.74 22.316C107.036 22.676 107.436 22.856 107.94 22.856ZM115.184 24.404C114.56 24.404 114.02 24.268 113.564 23.996C113.116 23.724 112.768 23.336 112.52 22.832C112.28 22.328 112.16 21.74 112.16 21.068C112.16 20.396 112.28 19.812 112.52 19.316C112.768 18.812 113.116 18.424 113.564 18.152C114.012 17.872 114.54 17.732 115.148 17.732C115.724 17.732 116.232 17.868 116.672 18.14C117.112 18.404 117.452 18.788 117.692 19.292C117.94 19.796 118.064 20.404 118.064 21.116L118.064 21.44L113.48 21.44C113.512 22.064 113.676 22.532 113.972 22.844C114.276 23.156 114.684 23.312 115.196 23.312C115.572 23.312 115.884 23.224 116.132 23.048C116.38 22.872 116.552 22.636 116.648 22.34L117.968 22.424C117.8 23.016 117.468 23.496 116.972 23.864C116.484 24.224 115.888 24.404 115.184 24.404ZM113.48 20.48L116.72 20.48C116.68 19.912 116.516 19.492 116.228 19.22C115.948 18.948 115.588 18.812 115.148 18.812C114.692 18.812 114.316 18.956 114.02 19.244C113.732 19.524 113.552 19.936 113.48 20.48Z" fill="rgb(250,250,250)" fill-rule="nonzero" />
		<g id="x" opacity="0" clip-path="url(#clipPath_7)" customFrame="url(#clipPath_7)">
			<rect id="x" width="12.000000" height="12.000000" x="121.000000" y="14.000000" opacity="0" />
			<path id="Vector" d="M130 17L124 23M124 17L130 23" stroke="rgb(250,250,250)" stroke-linecap="round" stroke-linejoin="round" stroke-width="1.500000" />
		</g>
	</g>
</svg>
