<svg viewBox="0 0 16 16" xmlns="http://www.w3.org/2000/svg" xmlns:xlink="http://www.w3.org/1999/xlink" width="16.000000" height="16.000000" fill="none">
	<rect id="Settings Icon" width="16.000000" height="16.000000" x="0.000000" y="0.000000" />
	<path id="Vector" d="M8.00008 0.833374C6.25118 0.833374 4.83342 2.25114 4.83342 4.00004C4.83342 5.74894 6.25118 7.16671 8.00008 7.16671C9.74898 7.16671 11.1667 5.74894 11.1667 4.00004C11.1667 2.25114 9.74898 0.833374 8.00008 0.833374ZM5.83342 4.00004C5.83342 2.80342 6.80346 1.83337 8.00008 1.83337C9.1967 1.83337 10.1667 2.80342 10.1667 4.00004C10.1667 5.19666 9.1967 6.16671 8.00008 6.16671C6.80346 6.16671 5.83342 5.19666 5.83342 4.00004ZM4.50008 2.66671C4.50008 2.39056 4.27622 2.16671 4.00008 2.16671C2.7086 2.16671 1.50008 3.05527 1.50008 4.33337C1.50008 5.61148 2.7086 6.50004 4.00008 6.50004C4.27622 6.50004 4.50008 6.27618 4.50008 6.00004C4.50008 5.7239 4.27622 5.50004 4.00008 5.50004C3.08242 5.50004 2.50008 4.89622 2.50008 4.33337C2.50008 3.77053 3.08242 3.16671 4.00008 3.16671C4.27622 3.16671 4.50008 2.94285 4.50008 2.66671ZM11.5001 2.66671C11.5001 2.39056 11.7239 2.16671 12.0001 2.16671C13.2916 2.16671 14.5001 3.05527 14.5001 4.33337C14.5001 5.61148 13.2916 6.50004 12.0001 6.50004C11.7239 6.50004 11.5001 6.27618 11.5001 6.00004C11.5001 5.7239 11.7239 5.50004 12.0001 5.50004C12.9177 5.50004 13.5001 4.89622 13.5001 4.33337C13.5001 3.77053 12.9177 3.16671 12.0001 3.16671C11.7239 3.16671 11.5001 2.94285 11.5001 2.66671ZM4.8943 9.03173C5.71105 8.48723 6.81057 8.16671 8.00008 8.16671C9.1896 8.16671 10.2891 8.48723 11.1059 9.03173C11.9191 9.5739 12.5001 10.3778 12.5001 11.3334C12.5001 12.2889 11.9191 13.0929 11.1059 13.635C10.2891 14.1795 9.1896 14.5 8.00008 14.5C6.81057 14.5 5.71105 14.1795 4.8943 13.635C4.08105 13.0929 3.50008 12.2889 3.50008 11.3334C3.50008 10.3778 4.08105 9.5739 4.8943 9.03173ZM3.15514 9.22627C3.09599 8.95654 2.82938 8.78583 2.55965 8.84498C1.91839 8.9856 1.34055 9.23961 0.911543 9.59066C0.482914 9.9414 0.166748 10.4235 0.166748 11C0.166748 11.5765 0.482914 12.0587 0.911543 12.4094C1.34055 12.7605 1.91839 13.0145 2.55965 13.1551C2.82938 13.2143 3.09599 13.0435 3.15514 12.7738C3.21429 12.5041 3.04358 12.2375 2.77385 12.1783C2.24561 12.0625 1.82345 11.8635 1.54483 11.6355C1.26583 11.4072 1.16675 11.1842 1.16675 11C1.16675 10.8158 1.26583 10.5929 1.54483 10.3646C1.82345 10.1366 2.24561 9.93761 2.77385 9.82177C3.04358 9.76262 3.21429 9.49601 3.15514 9.22627ZM12.845 9.22627C12.9042 8.95654 13.1708 8.78583 13.4405 8.84498C14.0818 8.9856 14.6596 9.23961 15.0886 9.59066C15.5172 9.9414 15.8334 10.4235 15.8334 11C15.8334 11.5765 15.5172 12.0587 15.0886 12.4094C14.6596 12.7605 14.0818 13.0145 13.4405 13.1551C13.1708 13.2143 12.9042 13.0435 12.845 12.7738C12.7859 12.5041 12.9566 12.2375 13.2263 12.1783C13.7546 12.0625 14.1767 11.8635 14.4553 11.6355C14.7343 11.4072 14.8334 11.1842 14.8334 11C14.8334 10.8158 14.7343 10.5929 14.4553 10.3646C14.1767 10.1366 13.7546 9.93761 13.2263 9.82177C12.9566 9.76262 12.7859 9.49601 12.845 9.22627ZM5.449 9.86378C4.81454 10.2868 4.50008 10.8162 4.50008 11.3334C4.50008 11.8506 4.81454 12.38 5.449 12.803C6.07998 13.2236 6.98046 13.5 8.00008 13.5C9.01971 13.5 9.92019 13.2236 10.5512 12.803C11.1856 12.38 11.5001 11.8506 11.5001 11.3334C11.5001 10.8162 11.1856 10.2868 10.5512 9.86378C9.92019 9.44313 9.01971 9.16671 8.00008 9.16671C6.98046 9.16671 6.07998 9.44313 5.449 9.86378Z" fill="rgb(255,255,255)" fill-rule="evenodd" />
</svg>
