<svg viewBox="0 0 16 16" xmlns="http://www.w3.org/2000/svg" xmlns:xlink="http://www.w3.org/1999/xlink" width="16.000000" height="16.000000" fill="none">
	<rect id="Settings Icon" width="16.000000" height="16.000000" x="0.000000" y="0.000000" />
	<path id="Vector (Stroke)" d="M8.97437 2.69795C9.77665 3.24623 10.5748 3.90635 11.3342 4.66577C12.0936 5.42521 12.7538 6.22335 13.3021 7.02566C13.7694 6.10737 14.0504 5.23783 14.1374 4.48345C14.2472 3.53206 14.045 2.82911 13.608 2.39204C13.1709 1.95496 12.4679 1.75281 11.5166 1.86258C10.7622 1.94962 9.89265 2.23057 8.97437 2.69795ZM13.9123 8.00015C14.5826 6.82337 15.0093 5.65121 15.1308 4.59807C15.2609 3.47115 15.045 2.41483 14.3151 1.68493C13.5852 0.955035 12.5289 0.739143 11.4019 0.869166C10.3488 0.990677 9.17665 1.41742 7.99989 2.08767C6.82315 1.41746 5.65103 0.990745 4.59792 0.869251C3.47104 0.739246 2.41474 0.955144 1.68487 1.68502C0.954982 2.41491 0.739087 3.47122 0.869101 4.59812C0.990603 5.65125 1.41733 6.82339 2.08756 8.00015C1.41738 9.17686 0.990699 10.349 0.869221 11.402C0.739232 12.5289 0.955135 13.5852 1.685 14.315C2.41486 15.0449 3.47113 15.2608 4.59799 15.1308C5.65108 15.0093 6.82317 14.5826 7.99989 13.9125C9.17663 14.5827 10.3488 15.0094 11.4019 15.1309C12.5288 15.2609 13.5851 15.045 14.3149 14.3151C15.0448 13.5853 15.2607 12.529 15.1307 11.4021C15.0092 10.349 14.5825 9.17688 13.9123 8.00015ZM12.7461 8.00013C12.1882 7.11672 11.476 6.2218 10.6271 5.37288C9.77819 4.52397 8.88329 3.8118 7.9999 3.25385C7.11655 3.81178 6.22171 4.52393 5.37285 5.37279C4.5239 6.22174 3.81169 7.11669 3.25374 8.00013C3.81167 8.8835 4.52383 9.77839 5.37272 10.6273C6.22162 11.4762 7.11651 12.1883 7.9999 12.7463C8.88333 12.1883 9.77827 11.4761 10.6272 10.6272C11.4761 9.77832 12.1882 8.88347 12.7461 8.00013ZM8.97439 13.3022C9.77671 12.7539 10.5749 12.0937 11.3343 11.3343C12.0937 10.5749 12.7538 9.77686 13.302 8.97463C13.7694 9.89287 14.0503 10.7624 14.1373 11.5167C14.2471 12.468 14.0449 13.171 13.6078 13.608C13.1708 14.0451 12.4678 14.2472 11.5165 14.1375C10.7621 14.0505 9.89264 13.7695 8.97439 13.3022ZM7.02539 13.3022C6.22312 12.7539 5.42502 12.0938 4.66561 11.3344C3.90621 10.575 3.24612 9.7769 2.69785 8.97464C2.23055 9.89286 1.94965 10.7623 1.86263 11.5166C1.75289 12.468 1.95505 13.1709 2.39211 13.6079C2.82916 14.045 3.53207 14.2471 4.4834 14.1374C5.23771 14.0504 6.10717 13.7695 7.02539 13.3022ZM2.69783 7.02564C3.24613 6.22331 3.90628 5.42515 4.66574 4.66568C5.42511 3.9063 6.22318 3.24622 7.02541 2.69796C6.10716 2.23062 5.23766 1.94969 4.48331 1.86266C3.53196 1.75291 2.82904 1.95506 2.39197 2.39213C1.9549 2.8292 1.75275 3.53214 1.86251 4.48351C1.94954 5.23786 2.23048 6.10738 2.69783 7.02564ZM7.99997 6.83336C7.35564 6.83336 6.8333 7.3557 6.8333 8.00003C6.8333 8.64436 7.35564 9.1667 7.99997 9.1667C8.6443 9.1667 9.16664 8.64436 9.16664 8.00003C9.16664 7.3557 8.6443 6.83336 7.99997 6.83336ZM5.8333 8.00003C5.8333 6.80341 6.80335 5.83336 7.99997 5.83336C9.19659 5.83336 10.1666 6.80341 10.1666 8.00003C10.1666 9.19665 9.19659 10.1667 7.99997 10.1667C6.80335 10.1667 5.8333 9.19665 5.8333 8.00003Z" fill="rgb(255,255,255)" fill-rule="evenodd" />
</svg>
