<svg viewBox="0 0 16 16" xmlns="http://www.w3.org/2000/svg" xmlns:xlink="http://www.w3.org/1999/xlink" width="16.000000" height="16.000000" fill="none" clip-path="url(#clipPath_0)" customFrame="url(#clipPath_0)">
	<defs>
		<clipPath id="clipPath_0">
			<rect width="16.000000" height="16.000000" x="0.000000" y="0.000000" rx="5.000000" fill="rgb(255,255,255)" />
		</clipPath>
	</defs>
	<rect id="Settings Icon" width="16.000000" height="16.000000" x="0.000000" y="0.000000" rx="5.000000" />
	<path id="Union" d="M5.16659 1.66669C5.16659 1.39054 4.94273 1.16669 4.66659 1.16669C4.39044 1.16669 4.16659 1.39054 4.16659 1.66669L4.16659 2.21808C3.99329 2.23129 3.82919 2.2479 3.6739 2.26878C2.89229 2.37386 2.25966 2.59527 1.76075 3.09418C1.26184 3.59309 1.04043 4.22572 0.935342 5.00734C0.834256 5.75921 0.833252 6.71782 0.833252 7.92568L0.833252 9.40768C0.833252 10.6155 0.834256 11.5742 0.935342 12.326C1.04043 13.1077 1.26184 13.7403 1.76075 14.2392C2.25966 14.7381 2.89229 14.9595 3.6739 15.0646C4.43337 15.1667 5.40382 15.1667 6.62898 15.1667L9.37089 15.1667C10.5961 15.1667 11.5665 15.1667 12.3259 15.0646C13.1075 14.9595 13.7402 14.7381 14.2391 14.2392C14.738 13.7403 14.9594 13.1077 15.0645 12.326C15.1656 11.5742 15.1666 10.6157 15.1666 9.408L15.1666 7.92534C15.1666 6.71764 15.1656 5.75914 15.0645 5.00734C14.9594 4.22572 14.738 3.59309 14.2391 3.09418C13.7402 2.59527 13.1075 2.37386 12.3259 2.26878C12.1707 2.2479 12.0065 2.23129 11.8333 2.21808L11.8333 1.66669C11.8333 1.39054 11.6094 1.16669 11.3333 1.16669C11.0571 1.16669 10.8333 1.39054 10.8333 1.66669L10.8333 2.17517C10.3919 2.16668 9.90563 2.16668 9.37086 2.16669L6.62889 2.16669C6.09414 2.16668 5.60792 2.16668 5.16659 2.17517L5.16659 1.66669ZM2.46785 3.80129C2.74999 3.51915 3.13643 3.35004 3.80715 3.25986C4.49226 3.16775 5.39537 3.16669 6.66659 3.16669L9.33325 3.16669C10.6045 3.16669 11.5076 3.16775 12.1927 3.25986C12.8634 3.35004 13.2498 3.51915 13.532 3.80129C13.8141 4.08343 13.9832 4.46986 14.0734 5.14059C14.0887 5.25418 14.1015 5.37376 14.1121 5.50002L1.88771 5.50002C1.89838 5.37376 1.91115 5.25418 1.92642 5.14059C2.0166 4.46986 2.18571 4.08343 2.46785 3.80129ZM1.83325 8.00002C1.83325 7.43068 1.83347 6.93517 1.84198 6.50002L14.1579 6.50002C14.1664 6.93517 14.1666 7.43068 14.1666 8.00002L14.1666 9.33335C14.1666 10.6046 14.1655 11.5077 14.0734 12.1928C13.9832 12.8635 13.8141 13.2499 13.532 13.5321C13.2498 13.8142 12.8634 13.9833 12.1927 14.0735C11.5076 14.1656 10.6045 14.1667 9.33325 14.1667L6.66659 14.1667C5.39537 14.1667 4.49226 14.1656 3.80715 14.0735C3.13643 13.9833 2.74999 13.8142 2.46785 13.5321C2.18571 13.2499 2.0166 12.8635 1.92642 12.1928C1.83431 11.5077 1.83325 10.6046 1.83325 9.33335L1.83325 8.00002ZM4.66659 9.33335C5.03478 9.33335 5.33325 9.03488 5.33325 8.66669C5.33325 8.2985 5.03478 8.00002 4.66659 8.00002C4.2984 8.00002 3.99992 8.2985 3.99992 8.66669C3.99992 9.03488 4.2984 9.33335 4.66659 9.33335ZM8.66659 8.66669C8.66659 8.2985 8.36811 8.00002 7.99992 8.00002C7.63173 8.00002 7.33325 8.2985 7.33325 8.66669C7.33325 9.03488 7.63173 9.33335 7.99992 9.33335C8.36811 9.33335 8.66659 9.03488 8.66659 8.66669ZM11.3333 9.33335C11.7014 9.33335 11.9999 9.03488 11.9999 8.66669C11.9999 8.2985 11.7014 8.00002 11.3333 8.00002C10.9651 8.00002 10.6666 8.2985 10.6666 8.66669C10.6666 9.03488 10.9651 9.33335 11.3333 9.33335ZM4.66659 12C5.03478 12 5.33325 11.7015 5.33325 11.3334C5.33325 10.9652 5.03478 10.6667 4.66659 10.6667C4.2984 10.6667 3.99992 10.9652 3.99992 11.3334C3.99992 11.7015 4.2984 12 4.66659 12ZM8.66659 11.3334C8.66659 10.9652 8.36811 10.6667 7.99992 10.6667C7.63173 10.6667 7.33325 10.9652 7.33325 11.3334C7.33325 11.7015 7.63173 12 7.99992 12C8.36811 12 8.66659 11.7015 8.66659 11.3334ZM11.3333 12C11.7014 12 11.9999 11.7015 11.9999 11.3334C11.9999 10.9652 11.7014 10.6667 11.3333 10.6667C10.9651 10.6667 10.6666 10.9652 10.6666 11.3334C10.6666 11.7015 10.9651 12 11.3333 12Z" fill="rgb(255,255,255)" fill-rule="evenodd" />
</svg>
