<svg viewBox="0 0 16 16" xmlns="http://www.w3.org/2000/svg" xmlns:xlink="http://www.w3.org/1999/xlink" width="16.000000" height="16.000000" fill="none">
	<rect id="Settings Icon" width="16.000000" height="16.000000" x="0.000000" y="0.000000" />
	<path id="Vector" d="M5.42402 1.06835C5.57037 1.30252 5.49918 1.61099 5.26501 1.75735L2.59833 3.42402C2.36416 3.57037 2.05569 3.49918 1.90933 3.26501C1.76298 3.03085 1.83417 2.72237 2.06834 2.57602L4.73502 0.90935C4.96919 0.762995 5.27766 0.834182 5.42402 1.06835ZM10.576 1.06835C10.7224 0.834182 11.0308 0.762995 11.265 0.90935L13.9317 2.57602C14.1658 2.72237 14.237 3.03085 14.0907 3.26502C13.9443 3.49918 13.6358 3.57037 13.4017 3.42402L10.735 1.75735C10.5008 1.61099 10.4296 1.30252 10.576 1.06835ZM8 3.16668C4.96243 3.16668 2.5 5.62912 2.5 8.66668C2.5 11.7042 4.96243 14.1667 8 14.1667C11.0376 14.1667 13.5 11.7042 13.5 8.66668C13.5 5.62912 11.0376 3.16668 8 3.16668ZM1.5 8.66668C1.5 5.07683 4.41015 2.16668 8 2.16668C11.5899 2.16668 14.5 5.07683 14.5 8.66668C14.5 12.2565 11.5899 15.1667 8 15.1667C4.41015 15.1667 1.5 12.2565 1.5 8.66668ZM8 5.50002C8.27614 5.50002 8.5 5.72387 8.5 6.00002L8.5 8.45958L10.0202 9.9798C10.2155 10.1751 10.2155 10.4916 10.0202 10.6869C9.82496 10.8822 9.50838 10.8822 9.31311 10.6869L7.64645 9.02024C7.55268 8.92647 7.5 8.79929 7.5 8.66668L7.5 6.00002C7.5 5.72387 7.72386 5.50002 8 5.50002Z" fill="rgb(30,41,59)" fill-rule="evenodd" />
</svg>
