<svg viewBox="0 0 16 16" xmlns="http://www.w3.org/2000/svg" xmlns:xlink="http://www.w3.org/1999/xlink" width="16.000000" height="16.000000" fill="none">
	<rect id="Settings Icon" width="16.000000" height="16.000000" x="0.000000" y="0.000000" />
	<path id="Vector" d="M6.63362 1.19482C7.09894 0.968541 7.52784 0.833328 7.99992 0.833328C8.472 0.833328 8.9009 0.968541 9.36622 1.19482C9.81602 1.41356 10.3356 1.73605 10.9847 2.13887L12.3624 2.99394C12.9765 3.37507 13.4683 3.68026 13.8473 3.97053C14.2398 4.27112 14.5413 4.57726 14.759 4.97508C14.9763 5.37208 15.0742 5.79449 15.1211 6.2938C15.1666 6.77768 15.1666 7.36942 15.1666 8.11147L15.1666 9.18664C15.1666 10.4559 15.1666 11.4577 15.0648 12.2411C14.9603 13.0446 14.7409 13.6934 14.245 14.2063C13.7469 14.7216 13.1129 14.9518 12.3282 15.0609C11.5676 15.1667 10.5962 15.1667 9.372 15.1667L6.6278 15.1667C5.40362 15.1667 4.43224 15.1667 3.67166 15.0609C2.88689 14.9518 2.25297 14.7216 1.75482 14.2063C1.25896 13.6934 1.0395 13.0446 0.935054 12.2411C0.833236 11.4577 0.833243 10.4558 0.833252 9.18657L0.833252 8.11147C0.833247 7.3694 0.833243 6.77769 0.878712 6.2938C0.92563 5.79449 1.02349 5.37208 1.24079 4.97508C1.45855 4.57726 1.76002 4.27112 2.15252 3.97053C2.53155 3.68026 3.02331 3.37507 3.63744 2.99393L5.01516 2.13888C5.6642 1.73605 6.18382 1.41356 6.63362 1.19482ZM7.07095 2.09413C6.67292 2.28768 6.19678 2.58247 5.5196 3.00274L4.18627 3.83024C3.54571 4.22779 3.09598 4.50756 2.76053 4.76446C2.43414 5.01442 2.24635 5.2207 2.11798 5.45523C1.98915 5.69059 1.91394 5.96576 1.87433 6.38735C1.83376 6.81905 1.83325 7.36387 1.83325 8.13594L1.83325 9.14996C1.83325 10.4639 1.83425 11.4008 1.92671 12.1122C2.01753 12.8109 2.18859 13.2162 2.47378 13.5112C2.75668 13.8039 3.14182 13.9776 3.8094 14.0704C4.49314 14.1655 5.3949 14.1667 6.66658 14.1667L9.33325 14.1667C10.6049 14.1667 11.5067 14.1655 12.1904 14.0704C12.858 13.9776 13.2432 13.8039 13.5261 13.5112C13.8112 13.2162 13.9823 12.8109 14.0731 12.1122C14.1656 11.4008 14.1666 10.4639 14.1666 9.14996L14.1666 8.13594C14.1666 7.36387 14.1661 6.81905 14.1255 6.38735C14.0859 5.96576 14.0107 5.69059 13.8819 5.45523C13.7535 5.2207 13.5657 5.01442 13.2393 4.76446C12.9039 4.50756 12.4541 4.22779 11.8136 3.83024L10.4802 3.00274C9.80306 2.58247 9.32692 2.28768 8.92889 2.09412C8.5411 1.90555 8.26647 1.83333 7.99992 1.83333C7.73337 1.83333 7.45874 1.90555 7.07095 2.09413ZM6.29766 10.265C6.07582 10.1005 5.76267 10.1471 5.59824 10.3689C5.4338 10.5908 5.48033 10.9039 5.70218 11.0683C6.35045 11.5489 7.14327 11.8333 7.99992 11.8333C8.85657 11.8333 9.64939 11.5489 10.2977 11.0683C10.5195 10.9039 10.566 10.5908 10.4016 10.3689C10.2372 10.1471 9.92402 10.1005 9.70218 10.265C9.21662 10.6249 8.63052 10.8333 7.99992 10.8333C7.36932 10.8333 6.78322 10.6249 6.29766 10.265Z" fill="rgb(255,255,255)" fill-rule="evenodd" />
</svg>
