<svg viewBox="0 0 16 16" xmlns="http://www.w3.org/2000/svg" xmlns:xlink="http://www.w3.org/1999/xlink" width="16.000000" height="16.000000" fill="none">
	<rect id="Settings Icon" width="16.000000" height="16.000000" x="0.000000" y="0.000000" />
	<path id="Vector" d="M4.27572 0.959826C5.21671 0.833313 6.42273 0.83332 7.96167 0.833328L8.03817 0.833328C9.5771 0.83332 10.7831 0.833313 11.7241 0.959826C12.6873 1.08932 13.4473 1.35955 14.0438 1.95609C14.6404 2.55263 14.9106 3.31264 15.0401 4.2758C15.1666 5.21678 15.1666 6.4228 15.1666 7.96171L15.1666 8.03827C15.1666 9.57719 15.1666 10.7832 15.0401 11.7242C14.9106 12.6873 14.6404 13.4474 14.0438 14.0439C13.4473 14.6404 12.6873 14.9107 11.7241 15.0402C10.7831 15.1667 9.57711 15.1667 8.0382 15.1667L7.96164 15.1667C6.42272 15.1667 5.21671 15.1667 4.27572 15.0402C3.31256 14.9107 2.55255 14.6404 1.95601 14.0439C1.35947 13.4474 1.08924 12.6873 0.95975 11.7242C0.833237 10.7832 0.833243 9.57718 0.833252 8.03825L0.833252 7.96174C0.833243 6.42281 0.833237 5.21679 0.95975 4.2758C1.08924 3.31264 1.35947 2.55263 1.95601 1.95609C2.55255 1.35955 3.31256 1.08932 4.27572 0.959826ZM4.40897 1.95091C3.5567 2.06549 3.04289 2.28342 2.66312 2.66319C2.28335 3.04296 2.06542 3.55678 1.95083 4.40905C1.83431 5.2757 1.83325 6.41451 1.83325 7.99999C1.83325 9.58548 1.83431 10.7243 1.95083 11.5909C2.06542 12.4432 2.28335 12.957 2.66312 13.3368C3.04289 13.7166 3.5567 13.9345 4.40897 14.0491C5.27562 14.1656 6.41444 14.1667 7.99992 14.1667C9.5854 14.1667 10.7242 14.1656 11.5909 14.0491C12.4431 13.9345 12.9569 13.7166 13.3367 13.3368C13.7165 12.957 13.9344 12.4432 14.049 11.5909C14.1655 10.7243 14.1666 9.58548 14.1666 7.99999C14.1666 6.41451 14.1655 5.2757 14.049 4.40905C13.9344 3.55678 13.7165 3.04296 13.3367 2.66319C12.9569 2.28342 12.4431 2.06549 11.5909 1.95091C10.7242 1.83439 9.5854 1.83333 7.99992 1.83333C6.41444 1.83333 5.27562 1.83439 4.40897 1.95091ZM9.16658 6.66666C9.16658 6.9428 9.39044 7.16666 9.66658 7.16666L10.1261 7.16666L8.78444 8.50837C8.71935 8.57346 8.61382 8.57346 8.54873 8.50837L7.49154 7.45118C7.03593 6.99557 6.29724 6.99557 5.84163 7.45118L4.31303 8.97977C4.11777 9.17504 4.11777 9.49162 4.31303 9.68688C4.50829 9.88214 4.82488 9.88214 5.02014 9.68688L6.54873 8.15829C6.61382 8.0932 6.71935 8.0932 6.78444 8.15829L7.84163 9.21548C8.29724 9.67109 9.03593 9.67109 9.49154 9.21548L10.8333 7.87377L10.8333 8.33333C10.8333 8.60947 11.0571 8.83333 11.3333 8.83333C11.6094 8.83333 11.8333 8.60947 11.8333 8.33333L11.8333 6.66666C11.8333 6.39052 11.6094 6.16666 11.3333 6.16666L9.66658 6.16666C9.39044 6.16666 9.16658 6.39052 9.16658 6.66666Z" fill="rgb(255,255,255)" fill-rule="evenodd" />
</svg>
