<svg viewBox="0 0 16 16" xmlns="http://www.w3.org/2000/svg" xmlns:xlink="http://www.w3.org/1999/xlink" width="16.000000" height="16.000000" fill="none">
	<rect id="Settings Icon" width="16.000000" height="16.000000" x="0.000000" y="0.000000" />
	<path id="Vector" d="M7.96167 0.833374L8.03817 0.833374C9.5771 0.833366 10.7831 0.833359 11.7241 0.959872C12.6873 1.08936 13.4473 1.35959 14.0438 1.95613C14.6404 2.55267 14.9106 3.31269 15.0401 4.27584C15.1666 5.21684 15.1666 6.42286 15.1666 7.96179L15.1666 8.03829C15.1666 9.57722 15.1666 10.7832 15.0401 11.7242C14.9106 12.6874 14.6404 13.4474 14.0438 14.044C13.4473 14.6405 12.6873 14.9107 11.7241 15.0402C10.7831 15.1667 9.5771 15.1667 8.03817 15.1667L7.96167 15.1667C6.42274 15.1667 5.21671 15.1667 4.27572 15.0402C3.31256 14.9107 2.55255 14.6405 1.95601 14.044C1.35947 13.4474 1.08924 12.6874 0.95975 11.7242C0.833237 10.7832 0.833243 9.57722 0.833252 8.03829L0.833252 7.96179C0.833243 6.42286 0.833237 5.21684 0.95975 4.27584C1.08924 3.31269 1.35947 2.55267 1.95601 1.95613C2.55255 1.35959 3.31256 1.08936 4.27572 0.959872C5.21671 0.833359 6.42274 0.833366 7.96167 0.833374ZM4.40897 1.95095C3.5567 2.06554 3.04289 2.28347 2.66312 2.66324C2.28335 3.04301 2.06542 3.55682 1.95083 4.40909C1.83431 5.27574 1.83325 6.41456 1.83325 8.00004C1.83325 9.58552 1.83431 10.7243 1.95083 11.591C2.06542 12.4433 2.28335 12.9571 2.66312 13.3368C3.04289 13.7166 3.5567 13.9345 4.40897 14.0491C5.27562 14.1656 6.41443 14.1667 7.99992 14.1667C9.5854 14.1667 10.7242 14.1656 11.5909 14.0491C12.4431 13.9345 12.9569 13.7166 13.3367 13.3368C13.7165 12.9571 13.9344 12.4433 14.049 11.591C14.1655 10.7243 14.1666 9.58552 14.1666 8.00004C14.1666 6.41456 14.1655 5.27574 14.049 4.40909C13.9344 3.55682 13.7165 3.04301 13.3367 2.66324C12.9569 2.28347 12.4431 2.06554 11.5909 1.95095C10.7242 1.83444 9.5854 1.83337 7.99992 1.83337C6.41443 1.83337 5.27562 1.83444 4.40897 1.95095ZM7.01141 4.30464C7.21138 4.49508 7.2191 4.81157 7.02865 5.01154L5.12389 7.01153C5.02952 7.11062 4.89866 7.16671 4.76182 7.16671C4.62498 7.16671 4.49413 7.11062 4.39975 7.01153L3.63785 6.21153C3.44741 6.01157 3.45513 5.69508 3.65509 5.50464C3.85506 5.3142 4.17154 5.32191 4.36199 5.52188L4.76182 5.94171L6.30452 4.32188C6.49496 4.12191 6.81145 4.1142 7.01141 4.30464ZM8.16658 6.00004C8.16658 5.7239 8.39044 5.50004 8.66658 5.50004L11.9999 5.50004C12.2761 5.50004 12.4999 5.7239 12.4999 6.00004C12.4999 6.27618 12.2761 6.50004 11.9999 6.50004L8.66658 6.50004C8.39044 6.50004 8.16658 6.27618 8.16658 6.00004ZM7.01141 8.9713C7.21138 9.16175 7.2191 9.47824 7.02865 9.6782L5.12389 11.6782C5.02952 11.7773 4.89866 11.8334 4.76182 11.8334C4.62498 11.8334 4.49413 11.7773 4.39975 11.6782L3.63785 10.8782C3.44741 10.6782 3.45513 10.3617 3.65509 10.1713C3.85506 9.98086 4.17154 9.98858 4.36199 10.1885L4.76182 10.6084L6.30452 8.98855C6.49496 8.78858 6.81145 8.78086 7.01141 8.9713ZM8.16658 10.6667C8.16658 10.3906 8.39044 10.1667 8.66658 10.1667L11.9999 10.1667C12.2761 10.1667 12.4999 10.3906 12.4999 10.6667C12.4999 10.9428 12.2761 11.1667 11.9999 11.1667L8.66658 11.1667C8.39044 11.1667 8.16658 10.9428 8.16658 10.6667Z" fill="rgb(255,255,255)" fill-rule="evenodd" />
</svg>
