<svg viewBox="0 0 32 31.9998" xmlns="http://www.w3.org/2000/svg" xmlns:xlink="http://www.w3.org/1999/xlink" width="32.000000" height="31.999832" fill="none" customFrame="#000000">
	<path id="Vector" d="M6.19998 0C2.77583 0 0 2.77582 0 6.19997L0 25.7998C0 29.224 2.77583 31.9998 6.19998 31.9998L25.8 31.9998C29.224 31.9998 32 29.224 32 25.7998L32 6.19997C32 2.77582 29.224 0 25.8 0L6.19998 0ZM13.7848 8.8C13.7848 7.47448 14.8592 6.39997 16.1848 6.39997L23.2 6.39997C24.5256 6.39997 25.6 7.47448 25.6 8.8L25.6 15.8153C25.6 17.1408 24.5256 18.2153 23.2 18.2153L16.5038 18.2153C15.0488 18.2153 13.8602 19.3472 13.7846 20.7662L13.7846 24C13.7846 24.8836 13.0682 25.6 12.1846 25.6L7.99998 25.6C7.11632 25.6 6.39998 24.8836 6.39998 24L6.39998 19.8153C6.39998 18.9317 7.11632 18.2153 7.99998 18.2153L11.0656 18.2149C12.5669 18.2149 13.7848 17.0125 13.7848 15.5293L13.7848 8.8Z" fill="rgb(0,129,251)" fill-rule="evenodd" />
</svg>
