<svg viewBox="0 0 16 16" xmlns="http://www.w3.org/2000/svg" xmlns:xlink="http://www.w3.org/1999/xlink" width="16.000000" height="16.000000" fill="none">
	<rect id="Settings Icon" width="16.000000" height="16.000000" x="0.000000" y="0.000000" />
	<path id="Vector" d="M8.89089 0.833374L10.4422 0.833374C11.2388 0.833369 11.8723 0.833364 12.3803 0.881669C12.9013 0.931199 13.3417 1.03502 13.734 1.27546C14.1377 1.52282 14.4771 1.86222 14.7245 2.26588C14.9649 2.65824 15.0687 3.09868 15.1183 3.61961C15.1666 4.12763 15.1666 4.76107 15.1665 5.55763L15.1665 6.10159C15.1666 6.66862 15.1666 7.11962 15.1416 7.48532C15.1161 7.85943 15.0628 8.18066 14.9382 8.48145C14.6337 9.21654 14.0497 9.80056 13.3146 10.105C13.0618 10.2097 12.7924 10.2647 12.4871 10.2946C12.4836 10.3875 12.4791 10.4758 12.4734 10.5599C12.4463 10.9572 12.3898 11.2958 12.2589 11.6119C11.9375 12.3878 11.321 13.0043 10.5451 13.3257C10.1472 13.4905 9.70827 13.5388 9.15634 13.5564C8.85938 13.5659 8.66955 13.5725 8.52535 13.5901C8.38902 13.6067 8.33786 13.6289 8.31021 13.6453C8.27947 13.6635 8.23705 13.6968 8.16307 13.7987C8.08315 13.9087 7.99268 14.0605 7.84937 14.3027L7.67641 14.5949C7.22512 15.3573 6.10803 15.3573 5.65674 14.5949L5.48378 14.3027C5.34047 14.0605 5.24999 13.9087 5.17008 13.7987C5.0961 13.6968 5.05368 13.6635 5.02294 13.6453C4.99529 13.6289 4.94413 13.6067 4.8078 13.5901C4.6636 13.5725 4.47377 13.5659 4.1768 13.5564C3.62488 13.5388 3.186 13.4905 2.78809 13.3257C2.01216 13.0043 1.3957 12.3878 1.0743 11.6119C0.943365 11.2958 0.886896 10.9572 0.859785 10.5599C0.833247 10.1709 0.833249 9.69078 0.833252 9.08498L0.833252 8.50759C0.833247 7.65654 0.833243 6.98217 0.884617 6.44184C0.937217 5.88863 1.04718 5.42453 1.29989 5.01213C1.561 4.58604 1.91925 4.22779 2.34534 3.96668C2.75773 3.71397 3.22183 3.60401 3.77504 3.55141C3.91567 3.53803 4.06538 3.52815 4.22493 3.52083C4.27828 3.04093 4.38464 2.6314 4.60863 2.26588C4.856 1.86222 5.19539 1.52282 5.59905 1.27546C5.99141 1.03502 6.43185 0.931199 6.95277 0.881669C7.46081 0.833364 8.09429 0.833369 8.89089 0.833374ZM5.84064 3.50004L7.49239 3.50004C8.34344 3.50004 9.01781 3.50003 9.55813 3.55141C10.1113 3.60401 10.5754 3.71397 10.9878 3.96668C11.4139 4.22779 11.7722 4.58604 12.0333 5.01213C12.286 5.42453 12.396 5.88863 12.4486 6.44184C12.4999 6.98216 12.4999 7.65653 12.4999 8.50758L12.4999 9.08498C12.4999 9.15386 12.4999 9.22112 12.4999 9.28681C12.6835 9.26299 12.8174 9.2286 12.9319 9.18117C13.422 8.97818 13.8113 8.58883 14.0143 8.09877C14.08 7.94013 14.1219 7.74044 14.1439 7.41725C14.1663 7.08958 14.1665 6.67266 14.1665 6.08339L14.1665 5.58339C14.1665 4.75535 14.166 4.16943 14.1227 3.71426C14.0802 3.26653 13.9998 2.9972 13.8718 2.78838C13.7069 2.51927 13.4807 2.29301 13.2115 2.12809C13.0027 2.00013 12.7334 1.91975 12.2857 1.87718C11.8305 1.8339 11.2446 1.83337 10.4165 1.83337L8.91655 1.83337C8.08851 1.83337 7.50259 1.8339 7.04743 1.87718C6.5997 1.91975 6.33038 2.00013 6.12155 2.12809C5.85244 2.29301 5.62618 2.51927 5.46127 2.78838C5.35423 2.96306 5.28145 3.17796 5.23546 3.50084C5.42659 3.50004 5.62808 3.50004 5.84059 3.50004L5.84064 3.50004ZM3.8697 4.54692C3.38968 4.59256 3.0967 4.67908 2.86784 4.81932C2.5763 4.99798 2.33119 5.24309 2.15253 5.53463C2.01229 5.76349 1.92577 6.05648 1.88013 6.5365C1.83378 7.02395 1.83325 7.65079 1.83325 8.53339L1.83325 9.06673C1.83325 9.69483 1.83352 10.1409 1.85747 10.4918C1.8811 10.8382 1.92613 11.0553 1.99818 11.2292C2.21808 11.7601 2.63988 12.1819 3.17077 12.4018C3.39356 12.4941 3.6806 12.5401 4.20877 12.557L4.22951 12.5576C4.49978 12.5663 4.73485 12.5738 4.92888 12.5974C5.13573 12.6227 5.33894 12.6703 5.53206 12.7846C5.7221 12.897 5.85936 13.046 5.97917 13.211C6.09001 13.3636 6.20421 13.5565 6.33367 13.7753L6.51729 14.0855C6.54756 14.1366 6.60041 14.1667 6.66657 14.1667C6.73273 14.1667 6.78559 14.1366 6.81586 14.0855L6.99949 13.7753C7.12894 13.5565 7.24314 13.3636 7.35397 13.211C7.47379 13.046 7.61105 12.897 7.80109 12.7846C7.99421 12.6703 8.19743 12.6227 8.40427 12.5974C8.5983 12.5738 8.83337 12.5663 9.10364 12.5576L9.12438 12.557C9.65257 12.5401 9.93961 12.4941 10.1624 12.4018C10.6933 12.1819 11.1151 11.7601 11.335 11.2292C11.407 11.0553 11.4521 10.8382 11.4757 10.4918C11.4996 10.1409 11.4999 9.69483 11.4999 9.06673L11.4999 8.53339C11.4999 7.65079 11.4994 7.02395 11.453 6.5365C11.4074 6.05648 11.3209 5.76349 11.1806 5.53463C11.002 5.24309 10.7569 4.99798 10.4653 4.81932C10.2365 4.67908 9.94349 4.59256 9.46347 4.54692C8.97602 4.50057 8.34918 4.50004 7.46659 4.50004L5.86659 4.50004C4.98399 4.50004 4.35715 4.50057 3.8697 4.54692ZM8.99992 9.33337C9.36811 9.33337 9.66659 9.0349 9.66659 8.66671C9.66659 8.29852 9.36811 8.00004 8.99992 8.00004C8.63173 8.00004 8.33325 8.29852 8.33325 8.66671C8.33325 9.0349 8.63173 9.33337 8.99992 9.33337ZM4.33325 9.33337C4.70144 9.33337 4.99992 9.0349 4.99992 8.66671C4.99992 8.29852 4.70144 8.00004 4.33325 8.00004C3.96506 8.00004 3.66659 8.29852 3.66659 8.66671C3.66659 9.0349 3.96506 9.33337 4.33325 9.33337ZM7.33325 8.66671C7.33325 9.0349 7.03478 9.33337 6.66659 9.33337C6.2984 9.33337 5.99992 9.0349 5.99992 8.66671C5.99992 8.29852 6.2984 8.00004 6.66659 8.00004C7.03478 8.00004 7.33325 8.29852 7.33325 8.66671Z" fill="rgb(255,255,255)" fill-rule="evenodd" />
</svg>
