<svg width="48" height="48" viewBox="0 0 48 48" fill="none" xmlns="http://www.w3.org/2000/svg">
<path d="M24 1C36.7025 1 47 11.2975 47 24C47 36.7025 36.7025 47 24 47C11.2975 47 1 36.7025 1 24C1 11.2975 11.2975 1 24 1Z" fill="#0081FB"/>
<path d="M24 1C36.7025 1 47 11.2975 47 24C47 36.7025 36.7025 47 24 47C11.2975 47 1 36.7025 1 24C1 11.2975 11.2975 1 24 1Z" stroke="white" stroke-width="2"/>
<path d="M18.0205 22.416H20.1565V23.184H18.0205V25.32H17.2525V23.184H15.1165V22.416H17.2525V20.28H18.0205V22.416ZM26.397 19.392L24.441 22.092C25.105 22.172 25.657 22.432 26.097 22.872C26.537 23.288 26.757 23.852 26.757 24.564C26.757 25.356 26.481 25.988 25.929 26.46C25.393 26.916 24.729 27.144 23.937 27.144C23.305 27.144 22.745 27 22.257 26.712C21.769 26.416 21.429 26.004 21.237 25.476L21.933 25.068C22.069 25.476 22.309 25.788 22.653 26.004C23.005 26.22 23.433 26.328 23.937 26.328C24.529 26.328 25.005 26.172 25.365 25.86C25.733 25.54 25.917 25.108 25.917 24.564C25.917 24.02 25.733 23.592 25.365 23.28C25.005 22.96 24.529 22.8 23.937 22.8V22.788L23.925 22.8H23.697L23.337 22.248L25.425 19.392H21.477V18.6H26.397V19.392ZM30.4202 21.6C31.2362 21.6 31.9122 21.86 32.4482 22.38C32.9762 22.9 33.2402 23.564 33.2402 24.372C33.2402 25.196 32.9762 25.864 32.4482 26.376C31.9282 26.888 31.2522 27.144 30.4202 27.144C29.5882 27.144 28.9122 26.888 28.3922 26.376C27.8642 25.864 27.6002 25.196 27.6002 24.372C27.6002 23.74 27.7722 23.18 28.1162 22.692L30.8642 18.6H31.8122L29.7482 21.672C29.9642 21.624 30.1882 21.6 30.4202 21.6ZM28.9802 25.788C29.3562 26.148 29.8362 26.328 30.4202 26.328C31.0122 26.328 31.4882 26.148 31.8482 25.788C32.2162 25.428 32.4002 24.956 32.4002 24.372C32.4002 23.788 32.2162 23.316 31.8482 22.956C31.4882 22.596 31.0122 22.416 30.4202 22.416C29.8362 22.416 29.3562 22.596 28.9802 22.956C28.6202 23.316 28.4402 23.788 28.4402 24.372C28.4402 24.956 28.6202 25.428 28.9802 25.788Z" fill="white"/>
</svg>
