<svg width="32" height="32" viewBox="0 0 32 32" fill="none" xmlns="http://www.w3.org/2000/svg">
<g clip-path="url(#clip0_270_15768)">
<rect width="32" height="31.9998" rx="8.11359" fill="white"/>
<path fill-rule="evenodd" clip-rule="evenodd" d="M6.19998 0C2.77583 0 0 2.77582 0 6.19997V25.7998C0 29.224 2.77583 31.9998 6.19998 31.9998H25.8C29.224 31.9998 32 29.224 32 25.7998V6.19997C32 2.77582 29.224 0 25.8 0H6.19998ZM13.7848 8.8C13.7848 7.47448 14.8592 6.39997 16.1848 6.39997H23.2C24.5256 6.39997 25.6 7.47448 25.6 8.8V15.8153C25.6 17.1408 24.5256 18.2153 23.2 18.2153H16.5038C15.0488 18.2153 13.8602 19.3472 13.7846 20.7662V24C13.7846 24.8836 13.0682 25.6 12.1846 25.6H7.99998C7.11632 25.6 6.39998 24.8836 6.39998 24V19.8153C6.39998 18.9317 7.11632 18.2153 7.99998 18.2153L11.0656 18.2149C12.5669 18.2149 13.7848 17.0125 13.7848 15.5293V8.8Z" fill="#0081FB"/>
</g>
<defs>
<clipPath id="clip0_270_15768">
<rect width="32" height="31.9998" rx="8.11359" fill="white"/>
</clipPath>
</defs>
</svg>
