<svg width="16" height="16" viewBox="0 0 16 16" fill="none" xmlns="http://www.w3.org/2000/svg">
<path fill-rule="evenodd" clip-rule="evenodd" d="M6.6291 2.16666H9.37099C10.5962 2.16665 11.5666 2.16664 12.3261 2.26875C13.1077 2.37383 13.7403 2.59524 14.2392 3.09415C14.7381 3.59306 14.9595 4.22569 15.0646 5.00731C15.1667 5.76679 15.1667 6.73721 15.1667 7.96238V8.0376C15.1667 9.26277 15.1667 10.2332 15.0646 10.9927C14.9595 11.7743 14.7381 12.4069 14.2392 12.9058C13.7403 13.4047 13.1077 13.6261 12.3261 13.7312C11.5666 13.8333 10.5962 13.8333 9.37098 13.8333H6.6291C5.40393 13.8333 4.4335 13.8333 3.67403 13.7312C2.89241 13.6261 2.25978 13.4047 1.76087 12.9058C1.26196 12.4069 1.04055 11.7743 0.935464 10.9927C0.833355 10.2332 0.833364 9.26277 0.833374 8.0376V7.96238C0.833364 6.73721 0.833355 5.76678 0.935464 5.00731C1.04055 4.22569 1.26196 3.59306 1.76087 3.09415C2.25978 2.59524 2.89241 2.37383 3.67403 2.26875C4.4335 2.16664 5.40392 2.16665 6.6291 2.16666ZM3.80727 3.25983C3.13655 3.35001 2.75012 3.51912 2.46798 3.80126C2.18584 4.0834 2.01672 4.46983 1.92655 5.14056C1.83444 5.82567 1.83337 6.72878 1.83337 7.99999C1.83337 9.2712 1.83444 10.1743 1.92655 10.8594C2.01672 11.5302 2.18584 11.9166 2.46798 12.1987C2.75012 12.4809 3.13655 12.65 3.80727 12.7402C4.49238 12.8323 5.39549 12.8333 6.66671 12.8333H9.33337C10.6046 12.8333 11.5077 12.8323 12.1928 12.7402C12.8635 12.65 13.25 12.4809 13.5321 12.1987C13.8142 11.9166 13.9834 11.5302 14.0735 10.8594C14.1656 10.1743 14.1667 9.2712 14.1667 7.99999C14.1667 6.72878 14.1656 5.82567 14.0735 5.14056C13.9834 4.46983 13.8142 4.0834 13.5321 3.80126C13.25 3.51912 12.8635 3.35001 12.1928 3.25983C11.5077 3.16772 10.6046 3.16666 9.33337 3.16666H6.66671C5.39549 3.16666 4.49238 3.16772 3.80727 3.25983ZM3.61593 5.01323C3.79271 4.80109 4.10799 4.77243 4.32013 4.94921L5.7594 6.1486C6.38137 6.66691 6.81319 7.0256 7.17776 7.26008C7.53067 7.48705 7.76999 7.56324 8.00004 7.56324C8.23009 7.56324 8.46941 7.48705 8.82232 7.26008C9.18689 7.0256 9.61871 6.66691 10.2407 6.1486L11.6799 4.94921C11.8921 4.77243 12.2074 4.80109 12.3842 5.01323C12.5609 5.22537 12.5323 5.54065 12.3201 5.71743L10.8558 6.93771C10.2649 7.43014 9.78596 7.82927 9.36326 8.10114C8.92293 8.38434 8.49409 8.56324 8.00004 8.56324C7.50599 8.56324 7.07716 8.38434 6.63683 8.10114C6.21412 7.82927 5.73518 7.43015 5.14428 6.93771L3.67995 5.71743C3.46781 5.54065 3.43915 5.22537 3.61593 5.01323Z" fill="#0081FB"/>
</svg>
