<svg width="16" height="16" viewBox="0 0 16 16" fill="none" xmlns="http://www.w3.org/2000/svg">
<g clip-path="url(#clip0_535_1798)">
<path d="M6.00004 10.6667C6.00004 11.0349 5.70156 11.3333 5.33338 11.3333C4.96519 11.3333 4.66671 11.0349 4.66671 10.6667C4.66671 10.2985 4.96519 10 5.33338 10C5.70156 10 6.00004 10.2985 6.00004 10.6667Z" fill="#0081FB"/>
<path d="M8.66671 10.6667C8.66671 11.0349 8.36823 11.3333 8.00004 11.3333C7.63185 11.3333 7.33338 11.0349 7.33338 10.6667C7.33338 10.2985 7.63185 10 8.00004 10C8.36823 10 8.66671 10.2985 8.66671 10.6667Z" fill="#0081FB"/>
<path d="M10.6667 11.3333C11.0349 11.3333 11.3334 11.0349 11.3334 10.6667C11.3334 10.2985 11.0349 10 10.6667 10C10.2985 10 10 10.2985 10 10.6667C10 11.0349 10.2985 11.3333 10.6667 11.3333Z" fill="#0081FB"/>
<path fill-rule="evenodd" clip-rule="evenodd" d="M3.50004 5.33334V6.20186C3.34882 6.21249 3.20629 6.22633 3.07221 6.24436C2.47214 6.32504 1.96689 6.49763 1.56561 6.89891C1.16433 7.30019 0.991735 7.80544 0.911057 8.40551C0.83335 8.98349 0.833361 9.71836 0.833374 10.6301V10.7033C0.833361 11.615 0.83335 12.3499 0.911057 12.9278C0.991735 13.5279 1.16433 14.0332 1.56561 14.4344C1.96689 14.8357 2.47214 15.0083 3.07221 15.089C3.65019 15.1667 4.38507 15.1667 5.2968 15.1667H10.7033C11.615 15.1667 12.3499 15.1667 12.9279 15.089C13.5279 15.0083 14.0332 14.8357 14.4345 14.4344C14.8358 14.0332 15.0083 13.5279 15.089 12.9278C15.1667 12.3499 15.1667 11.615 15.1667 10.7033V10.6301C15.1667 9.71837 15.1667 8.98349 15.089 8.40551C15.0083 7.80544 14.8358 7.30019 14.4345 6.89891C14.0332 6.49763 13.5279 6.32504 12.9279 6.24436C12.7938 6.22633 12.6513 6.21249 12.5 6.20185V5.33334C12.5 2.84806 10.4853 0.833344 8.00004 0.833344C5.51476 0.833344 3.50004 2.84806 3.50004 5.33334ZM8.00004 1.83334C6.06705 1.83334 4.50004 3.40035 4.50004 5.33334V6.16897C4.74903 6.16667 5.01439 6.16667 5.2967 6.16668H10.7033C10.9856 6.16667 11.251 6.16667 11.5 6.16897V5.33334C11.5 3.40035 9.93304 1.83334 8.00004 1.83334ZM3.20546 7.23544C2.71627 7.30121 2.45722 7.42151 2.27271 7.60602C2.08821 7.79053 1.96791 8.04957 1.90214 8.53876C1.83444 9.04232 1.83338 9.70973 1.83338 10.6667C1.83338 11.6236 1.83444 12.291 1.90214 12.7946C1.96791 13.2838 2.08821 13.5428 2.27271 13.7273C2.45722 13.9118 2.71627 14.0321 3.20546 14.0979C3.70902 14.1656 4.37643 14.1667 5.33338 14.1667H10.6667C11.6237 14.1667 12.2911 14.1656 12.7946 14.0979C13.2838 14.0321 13.5429 13.9118 13.7274 13.7273C13.9119 13.5428 14.0322 13.2838 14.0979 12.7946C14.1656 12.291 14.1667 11.6236 14.1667 10.6667C14.1667 9.70973 14.1656 9.04232 14.0979 8.53876C14.0322 8.04957 13.9119 7.79053 13.7274 7.60602C13.5429 7.42151 13.2838 7.30121 12.7946 7.23544C12.2911 7.16774 11.6237 7.16668 10.6667 7.16668H5.33338C4.37643 7.16668 3.70902 7.16774 3.20546 7.23544Z" fill="#0081FB"/>
</g>
<defs>
<clipPath id="clip0_535_1798">
<rect width="16" height="16" fill="white"/>
</clipPath>
</defs>
</svg>
